<?xml version="1.0" encoding="utf-8"?>
<!-- Generator: Adobe Illustrator 24.2.3, SVG Export Plug-In . SVG Version: 6.00 Build 0)  -->
<svg version="1.1" xmlns="http://www.w3.org/2000/svg" xmlns:xlink="http://www.w3.org/1999/xlink" x="0px" y="0px"
	 viewBox="0 0 512 512" style="enable-background:new 0 0 512 512;" xml:space="preserve">
<style type="text/css">
	.st0{opacity:0.5;}
	.st1{fill:#CEB6AE;}
	.st2{fill:#FFFFFF;stroke:#000000;stroke-width:12;stroke-linecap:round;stroke-linejoin:round;}
	.st3{fill:none;stroke:#000000;stroke-width:8;stroke-linecap:round;stroke-linejoin:round;}
	.st4{fill:none;stroke:#000000;stroke-width:12;stroke-linecap:round;stroke-linejoin:round;}
	.st5{fill:#0EAAAA;}
	.st6{fill:#EF4F23;}
	.st7{fill:#415885;}
</style>
<g id="Layer_2">
	<g class="st0">
		<path class="st1" d="M33.54,326.78l-14.58,6.66c-8,3.65-11.53,13.1-7.88,21.1c3.65,8,13.1,11.53,21.1,7.88l14.58-6.66
			c8-3.65,11.53-13.1,7.88-21.1C50.99,326.65,41.55,323.12,33.54,326.78z"/>
		<path class="st1" d="M501.29,227.33L501.29,227.33c-3.65-8-13.1-11.53-21.1-7.88L213.65,341.11c-8,3.65-11.53,13.1-7.88,21.1
			c3.65,8,13.1,11.53,21.1,7.88l125.49-57.28l-71.35,32.57c8-3.65,17.45-0.13,21.1,7.88c3.65,8,0.13,17.45-7.88,21.1l-2.73,1.25
			c-8,3.65-11.53,13.1-7.88,21.1c3.65,8,13.1,11.53,21.1,7.88l148.48-67.77c8-3.65,11.53-13.1,7.88-21.1
			c-3.65-8-13.1-11.53-21.1-7.88l-5.07,2.32c-8,3.65-17.45,0.13-21.1-7.88c-3.65-8-0.13-17.45,7.88-21.1l71.73-32.74
			C501.41,244.78,504.94,235.33,501.29,227.33z"/>
		<path class="st1" d="M222.85,301.89l5.07-2.32c8-3.65,17.45-0.13,21.1,7.88c3.65,8,0.13,17.45-7.88,21.1l191.39-87.36
			c-8,3.65-17.45,0.13-21.1-7.88c-3.65-8-0.13-17.45,7.88-21.1l9.98-4.55c8-3.65,11.53-13.1,7.88-21.1c-3.65-8-13.1-11.53-21.1-7.88
			l-104.48,47.69c0.31-2.78-0.08-5.67-1.32-8.39c-3.65-8-13.1-11.53-21.1-7.88l-5.07,2.32c-8,3.65-17.45,0.13-21.1-7.88
			c-3.65-8-0.13-17.45,7.88-21.1l27.5-12.55c8-3.65,11.53-13.1,7.88-21.1c-3.65-8-13.1-11.53-21.1-7.88l-54.14,24.71
			c-8,3.65-17.45,0.13-21.1-7.88c-3.65-8-0.13-17.45,7.88-21.1l2.73-1.25c8-3.65,11.53-13.1,7.88-21.1c-3.65-8-13.1-11.53-21.1-7.88
			L58.79,175.19c-8,3.65-11.53,13.1-7.88,21.1h0c3.65,8,13.1,11.53,21.1,7.88l5.07-2.31c8-3.65,17.45-0.13,21.1,7.88
			c3.65,8,0.13,17.45-7.88,21.1l-71.73,32.74c-8,3.65-11.53,13.1-7.88,21.1c3.65,8,13.1,11.53,21.1,7.88l142.47-65.03L79.47,270.8
			c8-3.65,17.45-0.13,21.1,7.88c3.65,8,0.13,17.45-7.88,21.1l-9.98,4.55c-8,3.65-11.53,13.1-7.88,21.1c3.65,8,13.1,11.53,21.1,7.88
			l104.48-47.69c-0.32,2.78,0.08,5.67,1.32,8.39C205.4,302.02,214.85,305.55,222.85,301.89z"/>
		<path class="st1" d="M457.35,177.35c3.65,8,13.1,11.53,21.1,7.88l14.58-6.66c8-3.65,11.53-13.1,7.88-21.1v0
			c-3.65-8-13.1-11.53-21.1-7.88l-14.58,6.66C457.23,159.9,453.7,169.34,457.35,177.35L457.35,177.35z"/>
	</g>
</g>
<g id="Layer_1">
	<g>
		<g>
			<circle class="st2" cx="256.5" cy="255.5" r="98.5"/>
			<g>
				<path d="M256,162.06c2.51,15.66,3.76,31.31,4.7,46.97c0.88,15.66,1.29,31.31,1.3,46.97c0.01,15.66-0.4,31.31-1.28,46.97
					c-0.94,15.66-2.2,31.31-4.72,46.97c-2.52-15.66-3.78-31.31-4.72-46.97c-0.88-15.66-1.29-31.31-1.28-46.97
					c0.01-15.66,0.42-31.31,1.3-46.97C252.24,193.37,253.49,177.71,256,162.06z"/>
			</g>
			<g>
				<g>
					<path d="M180.75,191.72c12.34,4.39,24.68,7.89,37.25,10.3c12.52,2.44,25.19,3.66,37.86,3.7c12.67-0.01,25.34-1.21,37.86-3.61
						c12.53-2.34,24.86-6.06,37.19-10.43c-10.83,7.38-22.98,12.86-35.72,16.55c-12.73,3.66-26.03,5.5-39.34,5.5
						c-13.31-0.04-26.6-1.9-39.32-5.61c-6.37-1.85-12.53-4.16-18.57-6.82C191.96,198.53,186.15,195.44,180.75,191.72z"/>
					<path d="M182.38,322.01c10.66-7.09,22.61-12.27,35.06-15.79c12.47-3.42,25.45-5.17,38.43-5.21
						c12.98,0.07,25.96,1.84,38.42,5.31c12.42,3.6,24.36,8.78,35.03,15.84c-12.13-4.04-24.21-7.45-36.46-9.72
						c-12.26-2.21-24.62-3.35-37-3.44c-12.38,0.04-24.75,1.15-37.01,3.33C206.57,314.5,194.49,317.92,182.38,322.01z"/>
				</g>
			</g>
			<line class="st3" x1="162.06" y1="256" x2="349.94" y2="256"/>
			<g>
				<g>
					<path d="M283.14,162.06c10.37,12.73,18.28,27.58,23.61,43.37c5.33,15.8,8.08,32.54,8.17,49.3c0.1,16.76-2.5,33.54-7.67,49.39
						c-5.22,15.82-12.92,30.81-23.31,43.55c6.02-15.27,10.98-30.48,14.2-46c3.25-15.49,4.86-31.19,4.79-46.89
						c-0.07-15.69-1.83-31.37-5.23-46.83c-0.49-1.91-0.92-3.85-1.38-5.78l-0.68-2.9c-0.12-0.48-0.21-0.97-0.35-1.45l-0.42-1.43
						l-1.68-5.74c-0.57-1.91-1.02-3.88-1.74-5.74l-1.95-5.7c-0.66-1.9-1.21-3.87-2-5.72c-0.75-1.87-1.48-3.77-2.21-5.67
						L283.14,162.06z"/>
					<path d="M227.57,162.06l-2.14,5.77c-0.73,1.91-1.45,3.8-2.2,5.67c-0.79,1.85-1.34,3.82-2,5.72l-1.95,5.7
						c-0.72,1.86-1.17,3.83-1.73,5.75l-1.67,5.74l-0.42,1.43c-0.13,0.48-0.22,0.97-0.34,1.45l-0.68,2.9
						c-0.46,1.93-0.89,3.87-1.38,5.78c-3.38,15.46-5.12,31.15-5.17,46.84c-0.05,15.69,1.58,31.39,4.86,46.88
						c3.24,15.52,8.24,30.72,14.29,45.98c-10.42-12.72-18.15-27.7-23.4-43.51c-5.21-15.84-7.82-32.62-7.75-49.39
						c0.06-16.76,2.8-33.52,8.11-49.32C209.31,189.66,217.21,174.79,227.57,162.06z"/>
				</g>
			</g>
		</g>
		<g>
			<line class="st4" x1="256" y1="138.14" x2="256" y2="131.66"/>
			<line class="st4" x1="256" y1="105.73" x2="256" y2="99.25"/>
			<circle class="st3" cx="256" cy="70.9" r="12.15"/>
		</g>
		<g>
			<line class="st4" x1="172.66" y1="172.66" x2="168.08" y2="168.08"/>
			<line class="st4" x1="149.75" y1="149.75" x2="145.16" y2="145.16"/>
			<circle class="st3" cx="125.12" cy="125.12" r="12.15"/>
		</g>
		<g>
			<line class="st4" x1="138.14" y1="256" x2="131.66" y2="256"/>
			<line class="st4" x1="105.73" y1="256" x2="99.25" y2="256"/>
			<circle class="st3" cx="70.9" cy="256" r="12.15"/>
		</g>
		<g>
			<line class="st4" x1="172.66" y1="339.34" x2="168.08" y2="343.92"/>
			<line class="st4" x1="149.75" y1="362.25" x2="145.16" y2="366.84"/>
			<circle class="st3" cx="125.12" cy="386.88" r="12.15"/>
		</g>
		<g>
			<line class="st4" x1="256" y1="373.86" x2="256" y2="380.34"/>
			<line class="st4" x1="256" y1="406.27" x2="256" y2="412.75"/>
			<circle class="st3" cx="256" cy="441.1" r="12.15"/>
		</g>
		<g>
			<line class="st4" x1="339.34" y1="339.34" x2="343.92" y2="343.92"/>
			<line class="st4" x1="362.25" y1="362.25" x2="366.84" y2="366.84"/>
			<circle class="st3" cx="386.88" cy="386.88" r="12.15"/>
		</g>
		<g>
			<line class="st4" x1="373.86" y1="256" x2="380.34" y2="256"/>
			<line class="st4" x1="406.27" y1="256" x2="412.75" y2="256"/>
			<circle class="st3" cx="441.1" cy="256" r="12.15"/>
		</g>
		<g>
			<line class="st4" x1="339.34" y1="172.66" x2="343.92" y2="168.08"/>
			<line class="st4" x1="362.25" y1="149.75" x2="366.84" y2="145.16"/>
			<circle class="st3" cx="386.88" cy="125.12" r="12.15"/>
		</g>
	</g>
</g>
<g id="Layer_3">
	<g>
		<polygon class="st5" points="389.18,91.6 353.84,79.34 366.1,44 		"/>
		<polygon class="st6" points="412.73,134.06 448.07,146.32 435.81,181.65 		"/>
		<polygon class="st7" points="411.24,107.85 423.5,72.51 458.83,84.77 		"/>
	</g>
</g>
</svg>
